<?xml version="1.0" encoding="UTF-8"?>
<svg width="752pt" height="752pt" version="1.1" viewBox="0 0 752 752" xmlns="http://www.w3.org/2000/svg">
 <defs>
  <clipPath id="b">
   <path d="m139.21 364h464.79v24h-464.79z"/>
  </clipPath>
  <clipPath id="a">
   <path d="m554 349h58.793v54h-58.793z"/>
  </clipPath>
 </defs>
 <g>
  <g clip-path="url(#b)">
   <path d="m595.8 387.29h-0.42188c-148.54-8.1797-299.24-9.5508-447.88-4.0117v0.003906c-4.3711 0.16016-8.0469-3.2539-8.207-7.625-0.16016-4.375 3.2539-8.0469 7.625-8.207 149.17-5.5938 300.35-4.2227 449.36 4.0117h0.003906c4.3711 0.11328 7.8203 3.7539 7.7031 8.125-0.11719 4.3711-3.7539 7.8203-8.125 7.7031z"/>
  </g>
  <g clip-path="url(#a)">
   <path d="m566.94 402.38c-3.8398-0.003906-7.125-2.7656-7.7852-6.5469-0.66406-3.7812 1.4844-7.4961 5.0938-8.8047 7.3359-2.6367 14.562-5.6445 21.688-8.8633-9.3906-4.3281-18.574-9.1289-27.438-14.352v-0.003906c-3.7734-2.2148-5.0391-7.0703-2.8242-10.844s7.0703-5.0391 10.844-2.8242c13.199 7.9219 26.996 14.805 41.262 20.582 2.9023 1.1211 4.8789 3.8398 5.0469 6.9453 0.17188 3.1055-1.4922 6.0234-4.2539 7.457-12.586 6.6016-25.594 12.367-38.941 17.254-0.89062 0.15625-1.8008 0.15625-2.6914 0z"/>
  </g>
 </g>
</svg>
